<svg width="21" height="20" viewBox="0 0 21 20" fill="none" xmlns="http://www.w3.org/2000/svg">
<path d="M9.99994 6C9.73472 6 9.48037 6.10536 9.29283 6.29289C9.1053 6.48043 8.99994 6.73478 8.99994 7C8.99994 7.26522 9.1053 7.51957 9.29283 7.70711C9.48037 7.89464 9.73472 8 9.99994 8C10.5304 8 11.0391 8.21071 11.4142 8.58578C11.7892 8.96086 11.9999 9.46957 11.9999 10C11.9999 10.5304 11.7892 11.0391 11.4142 11.4142C11.0391 11.7893 10.5304 12 9.99994 12C9.73472 12 9.48037 12.1054 9.29283 12.2929C9.1053 12.4804 8.99994 12.7348 8.99994 13C8.99994 13.2652 9.1053 13.5196 9.29283 13.7071C9.48037 13.8946 9.73472 14 9.99994 14C11.0608 14 12.0782 13.5786 12.8284 12.8284C13.5785 12.0783 13.9999 11.0609 13.9999 10C13.9999 8.93913 13.5785 7.92172 12.8284 7.17157C12.0782 6.42143 11.0608 6 9.99994 6ZM19.7099 9.29L17.3599 7V3.64C17.3599 3.37478 17.2546 3.12043 17.067 2.93289C16.8795 2.74536 16.6252 2.64 16.3599 2.64H13.0499L10.7099 0.29C10.617 0.196271 10.5064 0.121877 10.3845 0.0711086C10.2627 0.0203399 10.132 -0.00579834 9.99994 -0.00579834C9.86793 -0.00579834 9.73722 0.0203399 9.61536 0.0711086C9.4935 0.121877 9.3829 0.196271 9.28994 0.29L6.99994 2.64H3.63994C3.37472 2.64 3.12037 2.74536 2.93283 2.93289C2.7453 3.12043 2.63994 3.37478 2.63994 3.64V7L0.289939 9.29C0.196211 9.38296 0.121816 9.49356 0.0710475 9.61542C0.0202789 9.73728 -0.00585938 9.86799 -0.00585938 10C-0.00585938 10.132 0.0202789 10.2627 0.0710475 10.3846C0.121816 10.5064 0.196211 10.617 0.289939 10.71L2.63994 13.05V16.36C2.63994 16.6252 2.7453 16.8796 2.93283 17.0671C3.12037 17.2546 3.37472 17.36 3.63994 17.36H6.99994L9.33994 19.71C9.4329 19.8037 9.5435 19.8781 9.66536 19.9289C9.78722 19.9797 9.91793 20.0058 10.0499 20.0058C10.182 20.0058 10.3127 19.9797 10.4345 19.9289C10.5564 19.8781 10.667 19.8037 10.7599 19.71L13.0999 17.36H16.4099C16.6752 17.36 16.9295 17.2546 17.117 17.0671C17.3046 16.8796 17.4099 16.6252 17.4099 16.36V13.05L19.7599 10.71C19.8505 10.6138 19.921 10.5006 19.9676 10.3769C20.0141 10.2533 20.0356 10.1216 20.031 9.98957C20.0264 9.85754 19.9956 9.72773 19.9405 9.60766C19.8854 9.48758 19.807 9.37962 19.7099 9.29ZM15.6599 11.93C15.5655 12.0226 15.4903 12.1331 15.4388 12.2549C15.3873 12.3768 15.3605 12.5077 15.3599 12.64V15.36H12.6399C12.5076 15.3605 12.3767 15.3873 12.2549 15.4388C12.133 15.4903 12.0226 15.5655 11.9299 15.66L9.99994 17.59L8.06994 15.66C7.97732 15.5655 7.86688 15.4903 7.745 15.4388C7.62313 15.3873 7.49225 15.3605 7.35994 15.36H4.63994V12.64C4.63939 12.5077 4.61259 12.3768 4.56109 12.2549C4.5096 12.1331 4.43443 12.0226 4.33994 11.93L2.40994 10L4.33994 8.07C4.43443 7.97738 4.5096 7.86694 4.56109 7.74506C4.61259 7.62319 4.63939 7.49231 4.63994 7.36V4.64H7.35994C7.49225 4.63945 7.62313 4.61265 7.745 4.56115C7.86688 4.50966 7.97732 4.43449 8.06994 4.34L9.99994 2.41L11.9299 4.34C12.0226 4.43449 12.133 4.50966 12.2549 4.56115C12.3767 4.61265 12.5076 4.63945 12.6399 4.64H15.3599V7.36C15.3605 7.49231 15.3873 7.62319 15.4388 7.74506C15.4903 7.86694 15.5655 7.97738 15.6599 8.07L17.5899 10L15.6599 11.93Z" fill="#A3ABB2"/>
</svg>
